HIERARCHY
ROOT Hips
{
  OFFSET 5.72205e-005 65.662 3.42586
  CHANNELS 6 Xposition Yposition Zposition Zrotation Xrotation Yrotation
  JOINT Chest
  {
    OFFSET 0 8.7983 -4.7612
    CHANNELS 3 Zrotation Xrotation Yrotation
    JOINT Chest2
    {
      OFFSET 0 8.0291 0.4195
      CHANNELS 3 Zrotation Xrotation Yrotation
      JOINT Chest3
      {
        OFFSET 0 9.9351 -2.2114
        CHANNELS 3 Zrotation Xrotation Yrotation
        JOINT Neck
        {
          OFFSET 0 22.3885 -0.4656
          CHANNELS 3 Zrotation Xrotation Yrotation
          JOINT Head
          {
            OFFSET -0.0001 12.643 3.4389
            CHANNELS 3 Zrotation Xrotation Yrotation
            End Site
            {
              OFFSET 0.0001 17.6655 0.5274
            }
          }
        }
        JOINT LeftCollar
        {
          OFFSET 2.2603 21.606 7.4023
          CHANNELS 3 Zrotation Xrotation Yrotation
          JOINT LeftShoulder
          {
            OFFSET 13.5163 -1.1332 -5.0146
            CHANNELS 3 Zrotation Xrotation Yrotation
            JOINT LeftElbow
            {
              OFFSET -0.0995 -28.05 -0.2431
              CHANNELS 3 Zrotation Xrotation Yrotation
              JOINT LeftWrist
              {
                OFFSET 0.0679 -23.3996 -0.1402
                CHANNELS 3 Zrotation Xrotation Yrotation
                JOINT LeftFinger1
                {
                  OFFSET 0.7932 -9.069 2.5189
                  CHANNELS 3 Zrotation Xrotation Yrotation
                  JOINT LeftFinger11
                  {
                    OFFSET -0.8272 -3.3923 0.5977
                    CHANNELS 3 Zrotation Xrotation Yrotation
                    JOINT LeftFinger12
                    {
                      OFFSET -0.5649 -2.3158 0.4082
                      CHANNELS 3 Zrotation Xrotation Yrotation
                      End Site
                      {
                        OFFSET -0.4919 -1.6479 0.2673
                      }
                    }
                  }
                }
                JOINT LeftFinger2
                {
                  OFFSET 0.9159 -9.2044 0.2193
                  CHANNELS 3 Zrotation Xrotation Yrotation
                  JOINT LeftFinger21
                  {
                    OFFSET 0.0117 -4.1944 -0.0248
                    CHANNELS 3 Zrotation Xrotation Yrotation
                    JOINT LeftFinger22
                    {
                      OFFSET 0.0071 -2.3249 -0.0142
                      CHANNELS 3 Zrotation Xrotation Yrotation
                      End Site
                      {
                        OFFSET -0.1475 -2.0882 0.0028
                      }
                    }
                  }
                }
                JOINT LeftFinger3
                {
                  OFFSET 0.6113 -8.7231 -2.0637
                  CHANNELS 3 Zrotation Xrotation Yrotation
                  JOINT LeftFinger31
                  {
                    OFFSET -0.1927 -3.8059 -0.2383
                    CHANNELS 3 Zrotation Xrotation Yrotation
                    JOINT LeftFinger32
                    {
                      OFFSET -0.1091 -2.1688 -0.1362
                      CHANNELS 3 Zrotation Xrotation Yrotation
                      End Site
                      {
                        OFFSET -0.2358 -1.9176 -0.0906
                      }
                    }
                  }
                }
                JOINT LeftFinger4
                {
                  OFFSET -0.6151 -8.0947 -3.5641
                  CHANNELS 3 Zrotation Xrotation Yrotation
                  JOINT LeftFinger41
                  {
                    OFFSET -0.4882 -2.341 -0.6462
                    CHANNELS 3 Zrotation Xrotation Yrotation
                    JOINT LeftFinger42
                    {
                      OFFSET -0.3575 -1.7167 -0.4742
                      CHANNELS 3 Zrotation Xrotation Yrotation
                      End Site
                      {
                        OFFSET -0.4187 -1.5237 -0.3496
                      }
                    }
                  }
                }
                JOINT LeftFinger0
                {
                  OFFSET -1.42 -1.8761 1.4223
                  CHANNELS 3 Zrotation Xrotation Yrotation
                  JOINT LeftFinger01
                  {
                    OFFSET -1.1471 -3.4929 2.6334
                    CHANNELS 3 Zrotation Xrotation Yrotation
                    JOINT LeftFinger02
                    {
                      OFFSET -0.823 -2.3 1.6571
                      CHANNELS 3 Zrotation Xrotation Yrotation
                      End Site
                      {
                        OFFSET -0.5822 -1.6914 1.1582
                      }
                    }
                  }
                }
              }
            }
          }
        }
        JOINT RightCollar
        {
          OFFSET -2.2603 21.606 7.4023
          CHANNELS 3 Zrotation Xrotation Yrotation
          JOINT RightShoulder
          {
            OFFSET -13.5187 -1.1334 -5.0155
            CHANNELS 3 Zrotation Xrotation Yrotation
            JOINT RightElbow
            {
              OFFSET 0.0994 -28.0499 -0.2431
              CHANNELS 3 Zrotation Xrotation Yrotation
              JOINT RightWrist
              {
                OFFSET -0.0679 -23.3996 -0.1402
                CHANNELS 3 Zrotation Xrotation Yrotation
                JOINT RightFinger1
                {
                  OFFSET -0.7932 -9.0691 2.5189
                  CHANNELS 3 Zrotation Xrotation Yrotation
                  JOINT RightFinger11
                  {
                    OFFSET 0.8272 -3.3923 0.5977
                    CHANNELS 3 Zrotation Xrotation Yrotation
                    JOINT RightFinger12
                    {
                      OFFSET 0.565 -2.3158 0.4082
                      CHANNELS 3 Zrotation Xrotation Yrotation
                      End Site
                      {
                        OFFSET 0.4919 -1.6479 0.2673
                      }
                    }
                  }
                }
                JOINT RightFinger2
                {
                  OFFSET -0.916 -9.2044 0.2193
                  CHANNELS 3 Zrotation Xrotation Yrotation
                  JOINT RightFinger21
                  {
                    OFFSET -0.0117 -4.1944 -0.0248
                    CHANNELS 3 Zrotation Xrotation Yrotation
                    JOINT RightFinger22
                    {
                      OFFSET -0.0071 -2.3249 -0.0142
                      CHANNELS 3 Zrotation Xrotation Yrotation
                      End Site
                      {
                        OFFSET 0.1475 -2.0882 0.0028
                      }
                    }
                  }
                }
                JOINT RightFinger3
                {
                  OFFSET -0.6113 -8.7231 -2.0637
                  CHANNELS 3 Zrotation Xrotation Yrotation
                  JOINT RightFinger31
                  {
                    OFFSET 0.1927 -3.8059 -0.2383
                    CHANNELS 3 Zrotation Xrotation Yrotation
                    JOINT RightFinger32
                    {
                      OFFSET 0.1091 -2.1688 -0.1362
                      CHANNELS 3 Zrotation Xrotation Yrotation
                      End Site
                      {
                        OFFSET 0.2358 -1.9176 -0.0906
                      }
                    }
                  }
                }
                JOINT RightFinger4
                {
                  OFFSET 0.6151 -8.0947 -3.564
                  CHANNELS 3 Zrotation Xrotation Yrotation
                  JOINT RightFinger41
                  {
                    OFFSET 0.4882 -2.341 -0.6462
                    CHANNELS 3 Zrotation Xrotation Yrotation
                    JOINT RightFinger42
                    {
                      OFFSET 0.3574 -1.7166 -0.4742
                      CHANNELS 3 Zrotation Xrotation Yrotation
                      End Site
                      {
                        OFFSET 0.4187 -1.5237 -0.3496
                      }
                    }
                  }
                }
                JOINT RightFinger0
                {
                  OFFSET 1.4199 -1.8761 1.4221
                  CHANNELS 3 Zrotation Xrotation Yrotation
                  JOINT RightFinger01
                  {
                    OFFSET 1.1472 -3.4929 2.6336
                    CHANNELS 3 Zrotation Xrotation Yrotation
                    JOINT RightFinger02
                    {
                      OFFSET 0.8229 -2.3 1.6571
                      CHANNELS 3 Zrotation Xrotation Yrotation
                      End Site
                      {
                        OFFSET 0.5822 -1.6914 1.1582
                      }
                    }
                  }
                }
              }
            }
          }
        }
      }
    }
  }
  JOINT RightHip
  {
    OFFSET -9.412 3.9771 -0.7758
    CHANNELS 3 Zrotation Xrotation Yrotation
    JOINT RightKnee
    {
      OFFSET -0.7531 -40.938 0
      CHANNELS 3 Zrotation Xrotation Yrotation
      JOINT RightAnkle
      {
        OFFSET 0 -40.1986 0
        CHANNELS 3 Zrotation Xrotation Yrotation
        JOINT RightToe
        {
          OFFSET 0 -4.4182 9.239
          CHANNELS 3 Zrotation Xrotation Yrotation
          End Site
          {
            OFFSET 0 0 6.1981
          }
        }
      }
    }
  }
  JOINT LeftHip
  {
    OFFSET 9.4119 3.9773 -0.7758
    CHANNELS 3 Zrotation Xrotation Yrotation
    JOINT LeftKnee
    {
      OFFSET 0.7532 -40.9383 0
      CHANNELS 3 Zrotation Xrotation Yrotation
      JOINT LeftAnkle
      {
        OFFSET 0 -40.1986 0
        CHANNELS 3 Zrotation Xrotation Yrotation
        JOINT LeftToe
        {
          OFFSET 0 -4.4182 9.239
          CHANNELS 3 Zrotation Xrotation Yrotation
          End Site
          {
            OFFSET 0 0 6.1981
          }
        }
      }
    }
  }
}
MOTION
Frames:	5
Frame Time:	0.0333333
-0.689667 7.78533 5.25314 180 -85.9956 180 -0.295154 2.29978 -0.186456 -0.583516 4.60048 -0.36148 -0.583517 4.60048 -0.36148 1.01142e-005 1.27274 6.68013e-006 6.31778e-008 7.99912 -4.92904e-008 -4.39743 -20.5217 5.05194 179.192 -3.42528 -2.65626 0.932582 -4.84997 0.749384 -0.375696 19.7549 46.9832 6.36111e-015 3.18055e-015 7.15625e-015 -1.59028e-015 3.18055e-015 2.38542e-015 1.59028e-015 -3.18055e-015 2.38542e-015 6.36111e-015 3.18055e-015 7.15625e-015 -0.0128094 0.00232121 0.000102549 -4.41391e-031 -1.59028e-014 -1.59028e-015 6.36111e-015 3.18055e-015 7.15625e-015 -0.0160404 0.00300241 0.000866654 -4.77083e-015 3.18055e-015 1.51076e-014 6.36111e-015 3.18055e-015 7.15625e-015 -0.0125883 0.00312521 0.00282609 -2.11868e-030 -1.27222e-014 -9.54166e-015 6.36111e-015 3.18055e-015 7.15625e-015 -1.59028e-015 3.18055e-015 2.38542e-015 1.59028e-015 -3.18055e-015 2.38542e-015 3.47618 -20.0445 -10.9917 -179.711 -1.91097 -2.78002 -0.955255 -4.82462 -0.84571 1.87844 20.1548 -47.3626 1.59028e-015 -3.18055e-015 -7.95139e-015 1.59028e-015 -3.18055e-015 -1.35174e-014 -1.59028e-015 3.18055e-015 -1.51076e-014 1.59028e-015 -3.18055e-015 -7.95139e-015 0.0129651 0.00231168 -9.66975e-005 -4.77083e-015 -1.59028e-014 -4.77083e-015 1.59028e-015 -3.18055e-015 -7.95139e-015 0.0163631 0.00304114 -0.000867484 1.59028e-015 0 7.95139e-016 1.59028e-015 -3.18055e-015 -7.95139e-015 0.0145845 0.00367435 -0.00326871 1.59028e-015 0 -1.03368e-014 1.59028e-015 -3.18055e-015 -7.95139e-015 1.59028e-015 -3.18055e-015 -1.35174e-014 -1.59028e-015 3.18055e-015 -1.51076e-014 -91.0679 -48.0651 -122.313 0.659788 10.5256 9.72179 -13.0716 14.0109 17.9312 -2.51387e-006 6.04995e-007 -3.23794e-007 91.0392 -48.1812 122.267 -0.63495 10.389 -9.73185 12.8592 13.5934 -17.8833 2.06736e-014 3.18055e-015 1.59028e-015 
-0.689669 7.78526 5.24771 180 -85.9956 180 -0.295154 2.29978 -0.186456 -0.583516 4.60048 -0.36148 -0.583517 4.60048 -0.36148 1.01164e-005 1.0476 6.73155e-006 -9.04732e-008 7.99915 4.83278e-007 -4.39743 -20.5217 5.05194 179.192 -3.42528 -2.65626 0.932582 -4.84997 0.749384 -0.375696 19.7549 46.9832 6.36111e-015 3.18055e-015 7.15625e-015 -1.59028e-015 3.18055e-015 2.38542e-015 1.59028e-015 -3.18055e-015 2.38542e-015 6.36111e-015 3.18055e-015 7.15625e-015 -0.0128094 0.00232121 0.000102549 -4.41391e-031 -1.59028e-014 -1.59028e-015 6.36111e-015 3.18055e-015 7.15625e-015 -0.0160737 0.00300287 0.00086939 1.59028e-015 0 -7.95139e-016 6.36111e-015 3.18055e-015 7.15625e-015 -0.0125883 0.00312521 0.00282609 -2.11868e-030 -1.27222e-014 -9.54166e-015 6.36111e-015 3.18055e-015 7.15625e-015 -1.59028e-015 3.18055e-015 2.38542e-015 1.59028e-015 -3.18055e-015 2.38542e-015 3.47618 -20.0445 -10.9917 -179.711 -1.91097 -2.78002 -0.955255 -4.82462 -0.84571 1.87844 20.1548 -47.3626 1.59028e-015 -3.18055e-015 -7.95139e-015 1.59028e-015 -3.18055e-015 -1.35174e-014 -1.59028e-015 3.18055e-015 -1.51076e-014 1.59028e-015 -3.18055e-015 -7.95139e-015 0.0129651 0.00231168 -9.66975e-005 -4.77083e-015 -1.59028e-014 -4.77083e-015 1.59028e-015 -3.18055e-015 -7.95139e-015 0.0163569 0.00302904 -0.000878043 1.59028e-015 -3.18055e-015 7.95139e-016 1.59028e-015 -3.18055e-015 -7.95139e-015 0.0145845 0.00367435 -0.00326871 1.59028e-015 0 -1.03368e-014 1.59028e-015 -3.18055e-015 -7.95139e-015 1.59028e-015 -3.18055e-015 -1.35174e-014 -1.59028e-015 3.18055e-015 -1.51076e-014 -90.9967 -48.0916 -122.257 0.659066 10.1539 9.73315 -13.0598 14.076 17.942 5.51301e-006 2.31103e-006 -5.51062e-007 90.9666 -48.2081 122.21 -0.634163 10.0156 -9.74316 12.8471 13.6593 -17.8941 -6.39805e-007 1.39809e-007 1.57255e-006 
-0.689669 7.78518 5.24227 180 -85.9956 180 -0.295154 2.29978 -0.186456 -0.583516 4.60048 -0.36148 -0.583517 4.60048 -0.36148 9.96894e-006 0.822449 6.37773e-006 3.51506e-007 7.99913 1.66469e-007 -4.39743 -20.5217 5.05194 179.192 -3.42528 -2.65626 0.932582 -4.84997 0.749384 -0.375696 19.7549 46.9832 6.36111e-015 3.18055e-015 7.15625e-015 -1.59028e-015 3.18055e-015 2.38542e-015 1.59028e-015 -3.18055e-015 2.38542e-015 6.36111e-015 3.18055e-015 7.15625e-015 -0.0128094 0.00232121 0.000102549 -4.41391e-031 -1.59028e-014 -1.59028e-015 6.36111e-015 3.18055e-015 7.15625e-015 -0.0160536 0.00299876 0.000869436 -3.18055e-015 3.18055e-015 -7.15625e-015 6.36111e-015 3.18055e-015 7.15625e-015 -0.0125883 0.00312521 0.00282609 -2.11868e-030 -1.27222e-014 -9.54166e-015 6.36111e-015 3.18055e-015 7.15625e-015 -1.59028e-015 3.18055e-015 2.38542e-015 1.59028e-015 -3.18055e-015 2.38542e-015 3.47618 -20.0445 -10.9917 -179.711 -1.91097 -2.78002 -0.955255 -4.82462 -0.84571 1.87844 20.1548 -47.3626 1.59028e-015 -3.18055e-015 -7.95139e-015 1.59028e-015 -3.18055e-015 -1.35174e-014 -1.59028e-015 3.18055e-015 -1.51076e-014 1.59028e-015 -3.18055e-015 -7.95139e-015 0.0129651 0.00231168 -9.66975e-005 -4.77083e-015 -1.59028e-014 -4.77083e-015 1.59028e-015 -3.18055e-015 -7.95139e-015 0.0163569 0.00302904 -0.000878043 1.59028e-015 -3.18055e-015 7.95139e-016 1.59028e-015 -3.18055e-015 -7.95139e-015 0.0145845 0.00367435 -0.00326871 1.59028e-015 0 -1.03368e-014 1.59028e-015 -3.18055e-015 -7.95139e-015 1.59028e-015 -3.18055e-015 -1.35174e-014 -1.59028e-015 3.18055e-015 -1.51076e-014 -90.9229 -48.119 -122.2 0.658367 9.77841 9.74467 -13.0478 14.1429 17.953 -4.86956e-007 3.18055e-015 1.17645e-006 90.8915 -48.236 122.152 -0.633478 9.63811 -9.75463 12.8348 13.7273 -17.9051 -5.90498e-006 -7.50338e-006 1.73538e-006 
-0.689672 7.78508 5.23682 180 -85.9956 180 -0.295154 2.29978 -0.186456 -0.583516 4.60048 -0.36148 -0.583517 4.60048 -0.36148 1.02316e-005 0.597317 6.52109e-006 -1.78126e-007 7.99915 -1.91427e-007 -4.39743 -20.5217 5.05194 179.192 -3.42528 -2.65626 0.932582 -4.84997 0.749384 -0.375696 19.7549 46.9832 6.36111e-015 3.18055e-015 7.15625e-015 -1.59028e-015 3.18055e-015 2.38542e-015 1.59028e-015 -3.18055e-015 2.38542e-015 6.36111e-015 3.18055e-015 7.15625e-015 -0.0128094 0.00232121 0.000102549 -4.41391e-031 -1.59028e-014 -1.59028e-015 6.36111e-015 3.18055e-015 7.15625e-015 -0.0160536 0.00299876 0.000869436 -3.18055e-015 3.18055e-015 -7.15625e-015 6.36111e-015 3.18055e-015 7.15625e-015 -0.0125883 0.00312521 0.00282609 -2.11868e-030 -1.27222e-014 -9.54166e-015 6.36111e-015 3.18055e-015 7.15625e-015 -1.59028e-015 3.18055e-015 2.38542e-015 1.59028e-015 -3.18055e-015 2.38542e-015 3.47618 -20.0445 -10.9917 -179.711 -1.91097 -2.78002 -0.955255 -4.82462 -0.84571 1.87844 20.1548 -47.3626 1.59028e-015 -3.18055e-015 -7.95139e-015 1.59028e-015 -3.18055e-015 -1.35174e-014 -1.59028e-015 3.18055e-015 -1.51076e-014 1.59028e-015 -3.18055e-015 -7.95139e-015 0.0129301 0.00230424 -8.43637e-005 4.41391e-032 -3.18055e-015 7.95139e-016 1.59028e-015 -3.18055e-015 -7.95139e-015 0.0163569 0.00302904 -0.000878043 1.59028e-015 -3.18055e-015 7.95139e-016 1.59028e-015 -3.18055e-015 -7.95139e-015 0.0145845 0.00367435 -0.00326871 1.59028e-015 0 -1.03368e-014 1.59028e-015 -3.18055e-015 -7.95139e-015 1.59028e-015 -3.18055e-015 -1.35174e-014 -1.59028e-015 3.18055e-015 -1.51076e-014 -90.8465 -48.1475 -122.14 0.657632 9.39892 9.75639 -13.0355 14.2119 17.9644 7.15625e-015 -6.36111e-015 2.38542e-015 90.8136 -48.265 122.091 -0.632811 9.25643 -9.76625 12.8222 13.7973 -17.9165 -1.18227e-005 -6.59629e-006 -2.81735e-006 
-0.689673 7.78497 5.23136 180 -85.9956 180 -0.295154 2.29978 -0.186456 -0.583516 4.60048 -0.36148 -0.583517 4.60048 -0.36148 1.04894e-005 0.372195 6.82419e-006 -4.1108e-008 7.99914 -6.48979e-008 -4.39743 -20.5217 5.05194 179.192 -3.42528 -2.65626 0.932582 -4.84997 0.749384 -0.375696 19.7549 46.9832 6.36111e-015 3.18055e-015 7.15625e-015 -1.59028e-015 3.18055e-015 2.38542e-015 1.59028e-015 -3.18055e-015 2.38542e-015 6.36111e-015 3.18055e-015 7.15625e-015 -0.0128094 0.00232121 0.000102549 -4.41391e-031 -1.59028e-014 -1.59028e-015 6.36111e-015 3.18055e-015 7.15625e-015 -0.0160536 0.00299876 0.000869436 -3.18055e-015 3.18055e-015 -7.15625e-015 6.36111e-015 3.18055e-015 7.15625e-015 -0.0125883 0.00312521 0.00282609 -2.11868e-030 -1.27222e-014 -9.54166e-015 6.36111e-015 3.18055e-015 7.15625e-015 -1.59028e-015 3.18055e-015 2.38542e-015 1.59028e-015 -3.18055e-015 2.38542e-015 3.47618 -20.0445 -10.9917 -179.711 -1.91097 -2.78002 -0.955255 -4.82462 -0.84571 1.87844 20.1548 -47.3626 1.59028e-015 -3.18055e-015 -7.95139e-015 1.59028e-015 -3.18055e-015 -1.35174e-014 -1.59028e-015 3.18055e-015 -1.51076e-014 1.59028e-015 -3.18055e-015 -7.95139e-015 0.0129651 0.00231168 -9.66975e-005 -4.77083e-015 -1.59028e-014 -4.77083e-015 1.59028e-015 -3.18055e-015 -7.95139e-015 0.0163569 0.00302904 -0.000878043 1.59028e-015 -3.18055e-015 7.95139e-016 1.59028e-015 -3.18055e-015 -7.95139e-015 0.0145845 0.00367435 -0.00326871 1.59028e-015 0 -1.03368e-014 1.59028e-015 -3.18055e-015 -7.95139e-015 1.59028e-015 -3.18055e-015 -1.35174e-014 -1.59028e-015 3.18055e-015 -1.51076e-014 -90.7674 -48.177 -122.078 0.656967 9.0152 9.7683 -13.0229 14.2828 17.976 2.66107e-006 -1.43745e-006 -1.17363e-007 90.7324 -48.2952 122.027 -0.632141 8.86991 -9.77811 12.8093 13.8697 -17.9281 1.36883e-006 9.21587e-006 -3.17075e-006 
